<svg width="283" height="40" viewBox="0 0 283 40" fill="none" xmlns="http://www.w3.org/2000/svg">
<path d="M0.0500001 32.95C0.0500001 31.3167 0.366667 29.9167 1 28.75C2.46667 28.2833 3.41667 28.05 3.85 28.05C4.65 28.05 5.86667 28.2833 7.5 28.75C7.66667 29.1833 7.78333 29.8167 7.85 30.65C9.45 31.7167 11.25 32.25 13.25 32.25C15.0833 32.25 16.6833 31.7167 18.05 30.65C19.45 29.55 20.15 28.3333 20.15 27C20.15 25.1 18.3167 24.0833 14.65 23.95C13.25 23.8833 12.0333 23.8 11 23.7C9.96667 23.5667 8.73333 23.3167 7.3 22.95C5.9 22.55 4.75 22.0333 3.85 21.4C2.95 20.7667 2.16667 19.8833 1.5 18.75C0.866667 17.5833 0.55 16.2167 0.55 14.65C0.55 11.3167 1.76667 8.46667 4.2 6.1C6.63333 3.7 9.55 2.5 12.95 2.5C15.3167 2.5 17.5833 3.1 19.75 4.3C19.95 3.3 20.3 2.6 20.8 2.2C21.4333 1.86667 22.2333 1.7 23.2 1.7C24.7333 1.7 25.8 2 26.4 2.6C26.6 3.2 26.7 4.7 26.7 7.1C26.7 8.7 26.55 9.83333 26.25 10.5C25.9833 11.1667 25.45 11.5833 24.65 11.75C24.0833 11.9167 23.5333 12 23 12C21.8 12 20.8167 11.75 20.05 11.25C19.85 10.75 19.75 10.2 19.75 9.6C18.6167 9.03333 16.9667 8.75 14.8 8.75C12.4667 8.75 10.6833 9.13333 9.45 9.9C8.21667 10.6333 7.6 11.8833 7.6 13.65C7.6 14.95 7.96667 15.9 8.7 16.5C9.46667 17.0667 10.6833 17.3833 12.35 17.45C17.0833 17.6833 20.3 18.0667 22 18.6C25.6333 19.7 27.45 22.1 27.45 25.8C27.45 29.3 26.15 32.3 23.55 34.8C20.95 37.2667 17.6167 38.5 13.55 38.5C11.25 38.5 9.25 37.8833 7.55 36.65C7.55 37.4833 7.38333 38.1 7.05 38.5C6.45 38.8333 5.46667 39 4.1 39C2.63333 39 1.63333 38.75 1.1 38.25C0.4 36.9167 0.0500001 35.15 0.0500001 32.95ZM31.1465 27.35C31.1465 23.2167 32.3798 19.7167 34.8465 16.85C37.3132 13.95 40.5132 12.5 44.4465 12.5C46.2465 12.5 47.7965 12.8333 49.0965 13.5C50.4298 14.1333 51.4465 15.0333 52.1465 16.2C52.8798 17.3333 53.3965 18.5833 53.6965 19.95C54.0298 21.2833 54.1965 22.7667 54.1965 24.4C54.1965 29 53.0132 32.5 50.6465 34.9C48.3132 37.3 45.2632 38.5 41.4965 38.5C39.4965 38.5 37.7798 38.1667 36.3465 37.5C34.9132 36.8 33.8298 35.8833 33.0965 34.75C32.3965 33.5833 31.8965 32.4 31.5965 31.2C31.2965 30 31.1465 28.7167 31.1465 27.35ZM38.2965 26.95C38.2965 28.6167 38.8132 30.05 39.8465 31.25C40.8798 32.45 42.1132 33.05 43.5465 33.05C44.7798 33.05 45.8465 32.55 46.7465 31.55C47.6465 30.5167 48.2632 29.4333 48.5965 28.3C48.9298 27.1333 49.0965 26.05 49.0965 25.05C49.0965 23.55 48.6465 22.25 47.7465 21.15C46.8465 20.0167 45.7132 19.45 44.3465 19.45C42.6798 19.45 41.2465 20.25 40.0465 21.85C38.8798 23.4167 38.2965 25.1167 38.2965 26.95ZM57.6078 26.15C57.6078 24.5167 57.9578 22.9167 58.6578 21.35C59.3911 19.75 60.4078 18.2833 61.7078 16.95C63.0078 15.6167 64.7078 14.5333 66.8078 13.7C68.9411 12.8667 71.2911 12.45 73.8578 12.45C74.6578 12.45 75.2745 12.4667 75.7078 12.5L76.1078 11.25C77.1078 11.05 78.0745 10.95 79.0078 10.95C80.8411 10.95 82.6245 11.5 84.3578 12.6C84.5578 14.2 84.6578 15.4167 84.6578 16.25C84.6578 18.7167 84.1745 20.15 83.2078 20.55C82.2745 20.9167 81.3745 21.1 80.5078 21.1C78.9078 21.1 76.9411 20.7833 74.6078 20.15L74.9078 18.2C74.2411 18.1333 73.7078 18.1 73.3078 18.1C70.8745 18.1 68.7578 18.7833 66.9578 20.15C65.1911 21.4833 64.3078 23.4167 64.3078 25.95C64.3078 28.0833 64.9245 29.6667 66.1578 30.7C67.4245 31.7333 68.9245 32.25 70.6578 32.25C71.6911 32.25 73.0411 32.0333 74.7078 31.6L74.5578 29.8C76.2245 28.7 78.2578 28.15 80.6578 28.15C81.3245 28.15 82.1078 28.2333 83.0078 28.4C84.2411 29.9333 84.8578 31.7 84.8578 33.7C84.8578 34.5333 84.7411 35.85 84.5078 37.65C83.1078 38.7833 81.1745 39.35 78.7078 39.35C78.0411 39.35 77.2745 39.3167 76.4078 39.25L75.8578 38.45C74.8911 38.55 73.9578 38.6 73.0578 38.6C68.5245 38.6 64.8078 37.3833 61.9078 34.95C59.0411 32.4833 57.6078 29.55 57.6078 26.15ZM87.9254 33.85C87.9254 32.15 88.0254 31.1833 88.2254 30.95C88.6254 30.7167 89.1254 30.5667 89.7254 30.5C90.1254 30.4333 90.9921 30.4 92.3254 30.4C92.1254 28.3 92.0254 26.0167 92.0254 23.55C92.0254 20.85 92.1921 19.1333 92.5254 18.4C90.8921 18.4 89.8087 18.3333 89.2754 18.2C89.3087 17.3 89.4254 16.35 89.6254 15.35C89.6921 14.9167 89.8921 14.0667 90.2254 12.8C91.4587 12.5667 93.5254 12.45 96.4254 12.45C97.5921 12.45 98.6587 12.5167 99.6254 12.65C100.625 12.7833 101.375 12.95 101.875 13.15C102.409 13.3167 102.675 13.4833 102.675 13.65C102.742 13.65 102.775 14.25 102.775 15.45C102.775 17.35 102.609 18.55 102.275 19.05C102.142 19.25 101.742 19.35 101.075 19.35C99.8421 19.35 99.0587 19.2667 98.7254 19.1C98.3587 21.4333 98.1754 24.4667 98.1754 28.2C98.1754 29.7333 98.2254 30.5333 98.3254 30.6C98.5254 30.5667 98.8087 30.55 99.1754 30.55C100.375 30.55 101.342 30.7333 102.075 31.1C102.175 31.2333 102.225 31.5333 102.225 32C102.225 32.8333 102.109 33.8333 101.875 35C101.642 36.1667 101.309 36.9667 100.875 37.4C100.475 37.8 99.1754 38 96.9754 38C91.7421 38 88.8421 37.5167 88.2754 36.55C88.0421 36.1167 87.9254 35.2167 87.9254 33.85ZM91.9254 2.7C91.9254 1.76667 92.4254 1.3 93.4254 1.3C94.2587 1.3 95.1587 1.55 96.1254 2.05C96.8254 1.35 97.7587 1 98.9254 1C99.6587 1 100.309 1.25 100.875 1.75C101.442 2.25 101.725 2.93333 101.725 3.8C101.725 4.23333 101.625 4.65 101.425 5.05C101.259 5.45 101.075 5.78333 100.875 6.05C100.675 6.31666 100.342 6.63333 99.8754 7C99.4087 7.33333 99.0421 7.58333 98.7754 7.75C98.5421 7.88333 98.1087 8.13333 97.4754 8.5C96.8421 8.83333 96.4421 9.05 96.2754 9.15C94.9754 8.18333 93.9254 7.1 93.1254 5.9C92.3254 4.66667 91.9254 3.6 91.9254 2.7ZM106.195 27.65C106.195 25.25 106.545 22.9333 107.245 20.7C107.979 18.4333 109.129 16.4833 110.695 14.85C112.295 13.2167 114.162 12.4 116.295 12.4C117.262 12.4 118.112 12.5667 118.845 12.9C119.612 13.2333 120.195 13.65 120.595 14.15C121.029 14.6167 121.379 15.1 121.645 15.6C121.912 16.0667 122.095 16.4667 122.195 16.8C122.295 17.1333 122.362 17.3 122.395 17.3C122.395 15.5 122.379 14.3167 122.345 13.75C123.012 13.1833 123.695 12.8167 124.395 12.65C125.129 12.45 126.129 12.35 127.395 12.35C128.395 12.35 129.279 12.3833 130.045 12.45C130.845 12.5167 131.445 12.6 131.845 12.7C132.245 12.8 132.562 12.9 132.795 13C133.062 13.1 133.229 13.1667 133.295 13.2L133.395 13.25C133.529 13.55 133.595 14.4833 133.595 16.05C133.595 17.65 133.529 18.6 133.395 18.9C133.295 19.1333 132.762 19.35 131.795 19.55C130.829 19.7167 129.995 19.8 129.295 19.8C128.962 19.8 128.595 19.7667 128.195 19.7C128.295 19.9 128.345 20.75 128.345 22.25C128.345 26.6167 128.195 29.0333 127.895 29.5C128.129 29.4 128.412 29.35 128.745 29.35C130.212 29.35 131.645 29.5 133.045 29.8C133.312 30 133.445 31.4167 133.445 34.05C133.445 35.5167 133.395 36.45 133.295 36.85C133.062 37.2167 132.329 37.5667 131.095 37.9C129.862 38.2333 128.462 38.4 126.895 38.4C124.062 38.4 122.312 38.3333 121.645 38.2C121.412 37.5667 121.295 37.0333 121.295 36.6C121.295 36.3333 121.345 36.1333 121.445 36C121.045 36.1333 119.912 36.6333 118.045 37.5C116.179 38.3667 114.829 38.8 113.995 38.8C111.429 38.8 109.479 37.7167 108.145 35.55C106.845 33.3833 106.195 30.75 106.195 27.65ZM112.445 26.35C112.445 28.2167 113.012 29.8 114.145 31.1C115.312 32.3667 116.529 33 117.795 33C118.495 33 119.295 32.8167 120.195 32.45C121.095 32.0833 121.579 31.75 121.645 31.45C121.745 29.9167 121.829 28.5167 121.895 27.25C121.995 25.95 122.062 24.9667 122.095 24.3C122.162 23.6 122.195 23.15 122.195 22.95V22.35C122.195 21.65 121.729 20.9667 120.795 20.3C119.895 19.6 118.879 19.25 117.745 19.25C116.079 19.25 114.779 20.0167 113.845 21.55C112.912 23.05 112.445 24.65 112.445 26.35ZM137.148 33.5C137.148 32.0667 137.264 31.2333 137.498 31C138.364 30.6 139.331 30.4 140.398 30.4C140.031 28.2 139.848 24.8333 139.848 20.3C139.848 14.9667 140.014 10.3333 140.348 6.4C139.381 6.4 138.631 6.33333 138.098 6.2C138.031 5.53333 137.998 5 137.998 4.6C137.998 3.13333 138.348 1.86667 139.048 0.799999C140.481 0.466666 141.831 0.3 143.098 0.3C144.698 0.3 145.948 0.466666 146.848 0.799999C147.181 3.93333 147.348 7.25 147.348 10.75C147.348 13.2167 147.231 16.7333 146.998 21.3C146.798 25.8667 146.681 28.9667 146.648 30.6C146.814 30.5667 147.081 30.55 147.448 30.55C148.448 30.55 149.264 30.7333 149.898 31.1C150.031 31.3667 150.098 31.7667 150.098 32.3C150.098 33.1 149.964 34.0667 149.698 35.2C149.431 36.3 149.164 37.0833 148.898 37.55C148.464 37.8833 146.814 38.05 143.948 38.05C142.381 38.05 140.964 37.9167 139.698 37.65C138.464 37.3833 137.731 37.05 137.498 36.65C137.264 36.25 137.148 35.2 137.148 33.5ZM163.722 20.8C163.722 15.7 165.022 11.4 167.622 7.9C170.255 4.4 173.739 2.65 178.072 2.65C181.239 2.65 183.572 3.38333 185.072 4.85C185.139 3.85 185.489 3.23333 186.122 3C186.955 2.63333 187.972 2.45 189.172 2.45C190.739 2.45 191.972 2.78333 192.872 3.45C192.905 3.81667 192.972 4.4 193.072 5.2C193.205 5.96667 193.305 6.66667 193.372 7.3C193.439 7.93333 193.472 8.51666 193.472 9.05C193.472 11.1167 192.872 12.6833 191.672 13.75C190.972 14.5167 189.822 14.9 188.222 14.9C186.555 14.9 185.305 14.5167 184.472 13.75C184.439 13.6833 184.422 13.5333 184.422 13.3C184.422 12.9 184.472 12.6333 184.572 12.5C184.005 11.2667 183.089 10.3167 181.822 9.65C180.555 8.98333 179.405 8.65 178.372 8.65C176.439 8.65 174.639 9.9 172.972 12.4C171.339 14.8667 170.522 17.7 170.522 20.9C170.522 23.9333 171.289 26.4 172.822 28.3C174.389 30.1667 176.189 31.1 178.222 31.1C179.255 31.1 180.405 30.8667 181.672 30.4C182.939 29.9333 183.872 29.2833 184.472 28.45C184.372 27.85 184.322 27.5167 184.322 27.45C184.322 27.3833 184.322 27.3167 184.322 27.25C184.355 27.1833 184.372 27.1333 184.372 27.1C185.605 26.5333 186.689 26.25 187.622 26.25C188.555 26.25 189.922 26.5833 191.722 27.25C192.922 28.3167 193.522 29.8667 193.522 31.9C193.522 32.4333 193.472 33.0333 193.372 33.7C193.305 34.3333 193.205 35.0333 193.072 35.8C192.972 36.5667 192.905 37.15 192.872 37.55C191.839 38.3833 190.505 38.8 188.872 38.8C187.672 38.8 186.755 38.5333 186.122 38C185.422 37.7333 185.072 37.0833 185.072 36.05C182.872 37.55 180.639 38.3 178.372 38.3C176.605 38.3 174.872 37.9333 173.172 37.2C171.472 36.4667 169.905 35.4 168.472 34C167.039 32.6 165.889 30.7667 165.022 28.5C164.155 26.2 163.722 23.6333 163.722 20.8ZM195.512 6.05C195.512 3.51666 195.729 1.96666 196.162 1.4C197.129 0.799997 199.245 0.499997 202.512 0.499997C203.479 0.499997 204.579 0.549997 205.812 0.649998C207.045 0.749999 207.695 0.833332 207.762 0.899998C208.095 1.46667 208.262 5.26667 208.262 12.3C208.262 14.5 208.212 15.7333 208.112 16C211.212 13.6667 214.429 12.5 217.762 12.5C220.562 12.5 222.829 13.4167 224.562 15.25C226.329 17.0833 227.212 19.9667 227.212 23.9C227.212 27.1 227.112 29.0833 226.912 29.85C226.979 29.7833 227.145 29.75 227.412 29.75C228.279 29.75 229.045 29.8333 229.712 30C230.012 30.3333 230.162 31.25 230.162 32.75C230.162 35.05 229.995 36.4667 229.662 37C227.162 37.6667 224.879 38 222.812 38C220.845 38 219.012 37.7 217.312 37.1C217.079 36.9333 216.829 36.35 216.562 35.35C216.295 34.3167 216.162 33.45 216.162 32.75C216.162 32.1167 216.462 31.4 217.062 30.6C217.429 30.3667 217.912 30.25 218.512 30.25C218.979 30.25 219.429 30.3333 219.862 30.5C219.862 30.4 219.862 29.5167 219.862 27.85C219.895 26.15 219.912 25.2 219.912 25C219.912 22.9667 219.345 21.2333 218.212 19.8C217.079 18.3333 215.612 17.6 213.812 17.6C210.512 17.6 208.862 20.3833 208.862 25.95C208.862 26.5833 208.912 28.2 209.012 30.8C209.412 30.5667 209.929 30.45 210.562 30.45C211.162 30.45 211.529 30.5333 211.662 30.7C211.995 30.7 212.162 31.3667 212.162 32.7C212.162 33.0333 212.145 33.3 212.112 33.5L211.912 34.55C211.845 35.05 211.762 35.6333 211.662 36.3C209.095 37.4333 205.762 38 201.662 38C198.829 38 197.062 37.5333 196.362 36.6C196.062 36.2 195.912 35.6167 195.912 34.85C195.912 32.0167 197.279 30.6 200.012 30.6C200.745 30.6 201.395 30.6667 201.962 30.8C201.795 23.1333 201.712 16.45 201.712 10.75C201.712 8.75 201.745 7.65 201.812 7.45C201.679 7.45 201.479 7.46667 201.212 7.5C200.945 7.5 200.695 7.5 200.462 7.5C198.229 7.5 196.645 7.43333 195.712 7.3C195.579 7.16667 195.512 6.75 195.512 6.05ZM233.002 27.65C233.002 25.25 233.352 22.9333 234.052 20.7C234.785 18.4333 235.935 16.4833 237.502 14.85C239.102 13.2167 240.969 12.4 243.102 12.4C244.069 12.4 244.919 12.5667 245.652 12.9C246.419 13.2333 247.002 13.65 247.402 14.15C247.835 14.6167 248.185 15.1 248.452 15.6C248.719 16.0667 248.902 16.4667 249.002 16.8C249.102 17.1333 249.169 17.3 249.202 17.3C249.202 15.5 249.185 14.3167 249.152 13.75C249.819 13.1833 250.502 12.8167 251.202 12.65C251.935 12.45 252.935 12.35 254.202 12.35C255.202 12.35 256.085 12.3833 256.852 12.45C257.652 12.5167 258.252 12.6 258.652 12.7C259.052 12.8 259.369 12.9 259.602 13C259.869 13.1 260.035 13.1667 260.102 13.2L260.202 13.25C260.335 13.55 260.402 14.4833 260.402 16.05C260.402 17.65 260.335 18.6 260.202 18.9C260.102 19.1333 259.569 19.35 258.602 19.55C257.635 19.7167 256.802 19.8 256.102 19.8C255.769 19.8 255.402 19.7667 255.002 19.7C255.102 19.9 255.152 20.75 255.152 22.25C255.152 26.6167 255.002 29.0333 254.702 29.5C254.935 29.4 255.219 29.35 255.552 29.35C257.019 29.35 258.452 29.5 259.852 29.8C260.119 30 260.252 31.4167 260.252 34.05C260.252 35.5167 260.202 36.45 260.102 36.85C259.869 37.2167 259.135 37.5667 257.902 37.9C256.669 38.2333 255.269 38.4 253.702 38.4C250.869 38.4 249.119 38.3333 248.452 38.2C248.219 37.5667 248.102 37.0333 248.102 36.6C248.102 36.3333 248.152 36.1333 248.252 36C247.852 36.1333 246.719 36.6333 244.852 37.5C242.985 38.3667 241.635 38.8 240.802 38.8C238.235 38.8 236.285 37.7167 234.952 35.55C233.652 33.3833 233.002 30.75 233.002 27.65ZM239.252 26.35C239.252 28.2167 239.819 29.8 240.952 31.1C242.119 32.3667 243.335 33 244.602 33C245.302 33 246.102 32.8167 247.002 32.45C247.902 32.0833 248.385 31.75 248.452 31.45C248.552 29.9167 248.635 28.5167 248.702 27.25C248.802 25.95 248.869 24.9667 248.902 24.3C248.969 23.6 249.002 23.15 249.002 22.95V22.35C249.002 21.65 248.535 20.9667 247.602 20.3C246.702 19.6 245.685 19.25 244.552 19.25C242.885 19.25 241.585 20.0167 240.652 21.55C239.719 23.05 239.252 24.65 239.252 26.35ZM263.004 14.25C263.004 13.5167 263.104 13.05 263.304 12.85C263.904 12.75 264.688 12.7 265.654 12.7H266.754V3.3C268.488 3.16667 269.604 3.1 270.104 3.1C270.604 3.1 271.621 3.16667 273.154 3.3L273.654 12.8C277.321 12.9667 279.421 13.2 279.954 13.5C280.454 14.3667 280.704 15.7 280.704 17.5C280.704 18.2333 280.604 18.7 280.404 18.9C279.371 19.0333 278.188 19.1 276.854 19.1C276.421 19.1 275.771 19.1 274.904 19.1C274.038 19.0667 273.388 19.05 272.954 19.05C272.954 20.15 272.938 21.5333 272.904 23.2C272.904 24.8667 272.904 26.05 272.904 26.75C272.904 29.35 273.071 30.95 273.404 31.55C273.771 32.1167 274.738 32.4 276.304 32.4C276.904 32.4 277.404 32.3667 277.804 32.3L277.504 31.25L282.104 30.2C282.438 31.1667 282.604 32.3 282.604 33.6C282.604 35.7667 282.388 37.1333 281.954 37.7C278.688 38.1667 275.971 38.4 273.804 38.4C270.971 38.4 269.104 38 268.204 37.2C267.804 36.8333 267.488 36.35 267.254 35.75C267.021 35.15 266.854 34.3 266.754 33.2C266.688 32.0667 266.638 30.95 266.604 29.85C266.571 28.7167 266.521 27.0833 266.454 24.95C266.388 22.8167 266.304 20.8 266.204 18.9C265.138 18.8 264.321 18.5833 263.754 18.25C263.254 17.3833 263.004 16.05 263.004 14.25Z" fill="black"/>
</svg>
